<?xml version="1.0" standalone="no"?>
<!DOCTYPE svg PUBLIC "-//W3C//DTD SVG 20010904//EN"
 "http://www.w3.org/TR/2001/REC-SVG-20010904/DTD/svg10.dtd">
<svg version="1.0" xmlns="http://www.w3.org/2000/svg"
 width="1280.000000pt" height="656.000000pt" viewBox="0 0 1280.000000 656.000000"
 preserveAspectRatio="xMidYMid meet">
<metadata>
Created by potrace 1.16, written by Peter Selinger 2001-2019
</metadata>
<g transform="translate(0.000000,656.000000) scale(0.100000,-0.100000)"
fill="#868686" stroke="none">
<path fill="#f47820" d="M0 6170 l0 -390 1575 0 1575 0 0 -790 0 -790 -1180 0 -1180 0 0 210
0 210 950 0 950 0 0 390 0 390 -1345 0 -1345 0 0 -990 0 -990 1965 0 1965 0 0
1570 0 1570 -1965 0 -1965 0 0 -390z"/>
<path d="M8840 4990 l0 -1570 390 0 390 0 0 590 0 590 970 0 970 0 0 390 0
390 -970 0 -970 0 0 590 0 590 -390 0 -390 0 0 -1570z"/>
<path d="M11990 4990 l0 -1570 390 0 390 0 0 1570 0 1570 -390 0 -390 0 0
-1570z"/>
<path  d="M4420 5575 l0 -975 1965 0 1965 0 0 390 0 390 -1575 0 -1575 0 0 195
0 195 1575 0 1575 0 0 390 0 390 -1965 0 -1965 0 0 -975z"/>
<path d="M4420 3810 l0 -390 1965 0 1965 0 0 390 0 390 -1965 0 -1965 0 0
-390z"/>
<path fill="#f47820" d="M4235 2319 c-153 -25 -217 -77 -252 -204 -19 -71 -28 -358 -14 -482
32 -294 118 -340 618 -331 221 5 255 7 316 27 154 50 196 154 197 488 0 367
-49 461 -259 499 -85 15 -521 17 -606 3z m568 -133 c74 -17 113 -53 133 -123
12 -42 15 -97 12 -266 -3 -196 -5 -215 -26 -258 -42 -86 -123 -109 -382 -109
-266 0 -355 26 -400 115 -25 49 -25 54 -25 285 0 211 2 239 19 273 41 82 95
95 386 96 157 1 243 -3 283 -13z"/>
<path fill="#f47820" d="M10435 2316 c-133 -25 -198 -78 -231 -190 -16 -52 -19 -96 -19 -306
0 -225 2 -251 22 -316 53 -168 148 -203 543 -203 309 0 398 17 478 92 50 48
72 121 84 283 14 167 0 399 -28 478 -25 71 -79 120 -161 147 -63 21 -90 23
-343 25 -197 2 -295 -1 -345 -10z m625 -142 c95 -44 105 -78 105 -349 0 -242
-9 -288 -61 -335 -55 -48 -96 -55 -344 -55 -382 0 -420 27 -435 305 -8 152 7
329 31 371 26 43 61 67 114 78 25 6 158 9 295 8 230 -2 254 -4 295 -23z"/>
<path fill="#f47820" d="M283 1822 c-145 -274 -263 -501 -263 -505 0 -4 35 -7 78 -7 l78 0 60
113 59 112 365 2 365 3 60 -115 60 -115 83 0 84 0 -20 33 c-10 17 -131 245
-267 505 l-248 472 -116 0 -116 0 -262 -498z m538 115 l136 -262 -290 -3
c-160 -1 -292 0 -294 2 -5 5 241 489 260 514 5 6 19 12 31 12 17 0 44 -45 157
-263z"/>
<path fill="#f47820" d="M1440 1896 c0 -290 4 -434 11 -457 41 -121 144 -144 612 -136 251 3
311 7 357 22 74 23 104 47 126 97 17 39 19 80 22 471 l3 427 -75 0 -76 0 0
-395 c0 -452 2 -441 -77 -472 -43 -16 -81 -18 -348 -18 -330 0 -354 4 -392 61
-17 26 -18 60 -21 426 l-3 398 -69 0 -70 0 0 -424z"/>
<path fill="#f47820" d="M2750 2255 l0 -65 225 0 225 0 0 -440 0 -440 75 0 75 0 2 438 3 437
223 3 222 2 0 65 0 65 -525 0 -525 0 0 -65z"/>
<path fill="#f47820" d="M5350 1815 l0 -505 75 0 75 0 0 441 c0 411 1 440 17 437 10 -2 136
-186 299 -438 l283 -435 47 0 47 0 282 435 c158 244 289 436 298 438 16 3 17
-31 17 -437 l0 -441 75 0 75 0 0 505 0 505 -133 0 -134 0 -253 -402 c-139
-222 -258 -409 -265 -416 -10 -11 -63 67 -275 402 l-262 416 -134 0 -134 0 0
-505z"/>
<path fill="#f47820" d="M7439 1918 c-116 -222 -236 -449 -267 -506 l-54 -103 83 3 84 3 59
113 60 112 362 0 363 0 61 -115 61 -115 81 0 c44 0 78 4 76 9 -1 5 -120 232
-263 505 l-260 495 -117 1 -116 0 -213 -402z m488 19 c74 -142 133 -261 130
-263 -2 -2 -135 -3 -295 -2 l-290 3 136 263 c125 241 138 263 160 260 21 -3
44 -41 159 -261z"/>
<path fill="#f47820" d="M8540 2255 l0 -65 225 0 225 0 0 -440 0 -440 75 0 75 0 0 440 0 440
225 0 225 0 0 65 0 65 -525 0 -525 0 0 -65z"/>
<path fill="#f47820" d="M9780 1815 l0 -505 70 0 70 0 0 505 0 505 -70 0 -70 0 0 -505z"/>
<path fill="#f47820" d="M11560 1815 l0 -505 75 0 75 0 2 440 3 439 429 -439 429 -440 114 0
113 0 0 505 0 505 -75 0 -75 0 0 -441 c0 -242 -4 -439 -8 -437 -4 2 -201 200
-437 441 l-429 437 -108 0 -108 0 0 -505z"/>
<path d="M210 633 c-14 -2 -44 -11 -68 -19 -55 -20 -72 -53 -72 -139 0 -143
46 -169 338 -185 213 -12 226 -17 230 -86 2 -39 -1 -54 -16 -67 -30 -28 -126
-39 -280 -35 -166 5 -190 15 -206 86 -10 41 -11 42 -49 42 l-39 0 4 -61 c4
-54 9 -66 35 -90 46 -40 120 -52 318 -51 258 1 314 27 323 151 2 32 -1 76 -8
96 -20 59 -63 73 -291 90 -224 17 -259 28 -273 87 -13 53 3 84 51 97 21 6 106
11 188 11 180 0 214 -11 229 -72 9 -36 12 -38 48 -38 37 0 38 1 38 36 0 82
-44 124 -151 144 -49 10 -296 12 -349 3z"/>
<path d="M3116 626 c-44 -10 -67 -21 -87 -44 -43 -48 -51 -97 -47 -276 3 -183
13 -214 81 -249 50 -26 222 -39 370 -28 187 14 210 35 215 202 l4 109 -186 0
-186 0 0 -40 0 -39 143 -3 142 -3 -3 -45 c-2 -25 -9 -55 -17 -67 -22 -33 -106
-46 -266 -41 -120 3 -142 6 -166 24 -41 30 -52 74 -52 204 1 223 11 232 271
228 169 -3 178 -4 201 -26 14 -13 27 -40 31 -63 6 -38 7 -39 48 -39 l41 0 -6
59 c-11 124 -50 143 -297 147 -119 2 -194 -1 -234 -10z"/>
<path d="M4482 630 c-54 -11 -97 -37 -113 -67 -14 -25 -16 -88 -6 -143 7 -34
5 -36 -25 -45 -52 -16 -70 -58 -70 -165 0 -145 24 -165 226 -181 141 -12 394
-3 449 16 35 12 43 11 93 -11 30 -13 57 -24 59 -24 3 0 5 17 5 38 0 35 -4 40
-42 58 l-42 21 3 86 3 87 -40 0 -39 0 -7 -60 c-4 -33 -10 -60 -14 -60 -13 0
-445 230 -464 247 -24 22 -23 78 1 102 26 26 87 34 223 29 141 -5 172 -17 176
-71 3 -37 4 -37 48 -37 l44 0 0 49 c0 102 -60 131 -280 137 -80 1 -164 -1
-188 -6z m180 -406 c211 -106 213 -107 178 -117 -19 -5 -116 -7 -215 -5 -250
6 -282 22 -273 136 5 61 30 92 73 92 13 0 119 -48 237 -106z"/>
<path d="M6643 630 c-55 -12 -99 -35 -118 -63 -31 -48 -44 -238 -25 -372 18
-123 57 -153 220 -166 134 -11 313 2 363 26 58 27 78 81 84 228 6 138 -7 249
-35 287 -39 54 -81 64 -272 67 -96 1 -194 -2 -217 -7z m373 -85 c52 -22 64
-60 64 -210 0 -214 -16 -230 -240 -230 -234 0 -260 23 -260 233 0 145 12 185
62 207 47 20 325 21 374 0z"/>
<path d="M840 595 l0 -34 133 -3 132 -3 3 -262 2 -263 40 0 40 0 2 263 3 262
133 3 132 3 0 34 0 35 -310 0 -310 0 0 -35z"/>
<path d="M1550 330 l0 -300 285 0 285 0 0 40 0 40 -242 2 -243 3 0 90 0 90
238 3 237 2 0 35 0 35 -237 2 -238 3 0 90 0 90 243 3 242 2 0 35 0 35 -285 0
-285 0 0 -300z"/>
<path d="M2270 330 l0 -300 285 0 285 0 0 40 0 40 -242 2 -243 3 0 90 0 90
233 3 232 2 0 35 0 35 -232 2 -233 3 0 90 0 90 243 3 242 2 0 35 0 35 -285 0
-285 0 0 -300z"/>
<path d="M5650 330 l0 -300 45 0 45 0 0 135 0 135 260 0 260 0 0 -135 0 -135
45 0 45 0 0 300 0 300 -45 0 -45 0 0 -125 0 -125 -260 0 -260 0 0 125 0 125
-45 0 -45 0 0 -300z"/>
<path d="M7300 330 l0 -300 40 0 39 0 3 128 3 127 223 3 222 2 0 35 0 35 -225
0 -226 0 3 98 3 97 233 3 232 2 0 35 0 35 -275 0 -275 0 0 -300z"/>
<path d="M7990 330 l0 -300 45 0 45 0 0 130 0 130 225 0 225 0 0 35 0 35 -225
0 -225 0 0 100 0 100 235 0 235 0 0 35 0 35 -280 0 -280 0 0 -300z"/>
<path d="M8710 330 l0 -300 40 0 40 0 2 263 c2 151 7 262 12 262 5 0 85 -117
178 -260 159 -245 170 -260 198 -260 29 0 40 15 198 258 92 142 172 259 177
260 6 1 11 -92 13 -260 l2 -263 40 0 40 0 0 300 0 300 -79 0 -79 0 -156 -246
-155 -246 -53 83 c-29 46 -98 156 -154 244 l-101 160 -82 3 -81 3 0 -301z"/>
<path d="M9790 330 l0 -300 290 0 290 0 0 40 0 40 -245 0 -245 0 0 95 0 95
235 0 235 0 0 35 0 35 -232 2 -233 3 0 90 0 90 243 3 242 2 0 35 0 35 -290 0
-290 0 0 -300z"/>
<path d="M10654 450 l176 -181 0 -119 0 -120 40 0 40 0 0 117 0 118 182 182
183 183 -63 0 -62 0 -139 -142 -138 -142 -138 142 -137 142 -60 0 -60 0 176
-180z"/>
<path d="M11340 330 l0 -300 285 0 285 0 0 40 0 40 -240 0 -240 0 0 95 0 95
235 0 235 0 0 35 0 35 -235 0 -235 0 0 95 0 95 240 0 240 0 0 35 0 35 -285 0
-285 0 0 -300z"/>
<path d="M12070 330 l0 -300 40 0 39 0 3 108 3 107 220 3 c121 1 230 0 243 -3
49 -12 62 -38 62 -130 l0 -85 45 0 45 0 0 79 c0 92 -10 128 -46 157 l-26 21
30 29 c33 34 48 100 37 167 -9 53 -26 85 -60 117 l-27 25 -304 3 -304 3 0
-301z m563 216 c27 -13 47 -60 47 -111 0 -38 -5 -52 -29 -76 l-30 -29 -233 2
-233 3 -3 99 c-1 55 0 106 3 114 4 11 44 13 233 10 125 -2 235 -8 245 -12z"/>
</g>
</svg>
